<svg width="100" height="48" viewBox="0 0 100 48" fill="none" xmlns="http://www.w3.org/2000/svg">
<path d="M43.6871 16.4819C44.5397 14.0351 46.1741 12.4656 46.8846 11.9868C38.1724 2.76509 28.1643 10.0761 27.282 17.0842C25.9845 27.3906 33.8626 30.6624 38.4504 30.6624L33.0284 40.3478H40.2578C42.7448 35.5591 47.8856 25.6482 48.553 24.3135C49.2203 22.9789 49.4097 21.6518 49.8042 20.63C53.1408 11.9868 62.2701 14.0263 64.6799 16.9452L68.3409 12.9136C56.3847 2.9965 45.653 13.1216 44.1968 20.0039C42.8024 26.8289 32.6451 25.7545 33.0284 18.799C33.4061 13.8207 39.6049 11.772 42.8748 15.5448L43.6871 16.4819Z" fill="url(#paint0_linear_4617_137166)"/>
<path d="M46.0505 31.1728L49.4798 24.7776C50.0342 28.603 52.9667 31.6547 56.7654 32.3697C57.7697 32.5588 58.8008 32.5769 59.8111 32.4225L60.6738 32.2907C63.3036 31.8889 65.4872 30.0486 66.3285 27.5247L66.719 26.3532H58.2847V20.5141H72.558C74.36 29.329 67.8708 37.6724 58.8836 38.0958L58.2847 38.1241C53.383 38.1241 48.8261 35.602 46.2232 31.4484L46.0505 31.1728Z" fill="url(#paint1_linear_4617_137166)"/>
<defs>
<linearGradient id="paint0_linear_4617_137166" x1="34.9098" y1="-4.39772" x2="81.9373" y2="26.5566" gradientUnits="userSpaceOnUse">
<stop stop-color="#FB8466"/>
<stop offset="0.274634" stop-color="#BD5BD4"/>
<stop offset="0.62615" stop-color="#7473FA"/>
<stop offset="1" stop-color="#53B2FA"/>
</linearGradient>
<linearGradient id="paint1_linear_4617_137166" x1="34.9098" y1="-4.39772" x2="81.9373" y2="26.5566" gradientUnits="userSpaceOnUse">
<stop stop-color="#FB8466"/>
<stop offset="0.274634" stop-color="#BD5BD4"/>
<stop offset="0.62615" stop-color="#7473FA"/>
<stop offset="1" stop-color="#53B2FA"/>
</linearGradient>
</defs>
</svg>
