<svg width="100" height="48" viewBox="0 0 100 48" fill="none" xmlns="http://www.w3.org/2000/svg">
<g clip-path="url(#clip0_4617_137242)">
<path fill-rule="evenodd" clip-rule="evenodd" d="M3.08104e-05 15.6445C-0.00614875 14.6634 0.918395 14.1697 1.72659 14.6445C5.35589 16.769 9.00719 18.8544 12.6475 20.96C14.3065 21.9192 14.3236 24.2326 12.6787 25.2422C11.4131 26.0188 10.1332 26.7763 8.86136 27.542C8.18836 27.9461 7.51678 28.3508 6.84378 28.7549C6.76835 28.8005 6.6897 28.843 6.57816 28.9043L6.57913 28.9023C6.56971 28.7768 6.55863 28.6872 6.55862 28.5977C6.55862 27.2123 6.56258 25.8268 6.55472 24.4414C6.55472 24.2134 6.63024 24.073 6.82523 23.9551C7.25266 23.6958 7.66932 23.4164 8.0889 23.1445C8.14859 23.1053 8.20544 23.0611 8.31058 22.9873C6.87032 22.1555 5.46798 21.3469 4.00101 20.501V21.1592C4.00887 24.9064 4.01637 28.6541 4.02737 32.4014C4.02737 32.5648 3.99428 32.6844 3.8389 32.7725C2.63297 33.4548 1.43133 34.1436 0.228546 34.8291C0.186115 34.8542 0.137165 34.8694 0.0586246 34.9023C0.0507762 34.7972 0.038162 34.7104 0.0381167 34.624C0.0318269 32.5452 0.0236838 30.4675 0.0205386 28.3887C0.0158211 24.1413 0.0299084 19.8919 3.08104e-05 15.6445ZM17.8711 12.1133C18.1054 12.1935 18.3496 12.2515 18.5713 12.3584C19.54 12.827 20.0701 13.6117 20.0733 14.6826C20.0859 20.5419 20.0825 26.4015 20.0762 32.2607C20.0761 33.2558 19.647 34.0422 18.7793 34.5391C17.8957 35.0454 16.9958 35.0139 16.1153 34.4951C13.2046 32.7764 10.2935 31.0609 7.38284 29.3438C7.29793 29.2934 7.21596 29.2381 7.10745 29.1689C7.75055 28.7806 8.37016 28.4059 8.99124 28.0332C9.54944 27.6967 10.1112 27.3684 10.6631 27.0225C10.8203 26.9234 10.9318 26.9314 11.0889 27.0225C12.5544 27.8716 14.0265 28.7099 15.4951 29.5527C15.9056 29.7886 16.1133 29.675 16.1133 29.208V17.7646C16.1133 17.3166 15.8994 17.1974 15.5078 17.4238C15.0236 17.7037 14.5393 17.9832 14.0567 18.2646C13.6447 18.5037 13.2339 18.5056 12.8203 18.2666C11.9099 17.7398 10.9981 17.2158 10.0909 16.6875C9.70717 16.4642 9.70388 16.2315 10.086 16.0098C12.1349 14.8178 14.1825 13.6241 16.2393 12.4463C16.5065 12.2891 16.8242 12.2217 17.1182 12.1133H17.8711ZM84.4932 19.3193C86.7113 18.7801 88.9827 19.4855 90.043 21.1025C89.4164 21.6569 88.7885 22.2133 88.1807 22.752C87.9637 22.5507 87.7609 22.357 87.5518 22.1699C86.4447 21.1794 83.9858 21.3765 83.5518 23.6738C83.3506 24.7383 83.5704 25.7102 84.4619 26.4209C85.3393 27.1189 86.8064 27.0625 87.6446 26.3174C87.8317 26.1523 87.9968 25.9614 88.1934 25.7617C88.5252 26.0416 88.8476 26.3139 89.17 26.5859C89.4875 26.8547 89.8052 27.1234 90.1211 27.3906C89.0032 28.9222 86.7014 29.9512 84.2217 29.2344C82.0502 28.6054 80.6958 26.6364 80.7412 24.1992C80.7853 21.8248 82.287 19.8556 84.4932 19.3193ZM52.6241 19.4268C52.786 19.4268 52.873 19.4636 52.9453 19.624C54.3574 22.7327 55.776 25.8382 57.1944 28.9453C57.218 28.9972 57.2348 29.0527 57.2725 29.1533V29.1553C56.5162 29.1553 55.7987 29.1568 55.0801 29.1553C54.8223 29.1554 54.5046 29.2333 54.3223 29.1123C54.1417 28.9927 54.0918 28.67 53.9912 28.4326C53.8026 27.9877 53.6259 27.5379 53.4278 27.0977C53.3946 27.0239 53.2787 26.9407 53.2002 26.9404C51.8888 26.931 50.5752 26.9376 49.2637 26.9297C49.1113 26.9297 49.0677 27.0024 49.0205 27.1172C48.7752 27.7178 48.5168 28.3152 48.2793 28.9189C48.207 29.106 48.1093 29.1623 47.9112 29.1592C47.0606 29.1466 46.2083 29.1553 45.3106 29.1553C45.5024 28.7417 45.6774 28.3591 45.8535 27.9785C47.143 25.2062 48.4341 22.435 49.7188 19.6611C49.7958 19.4948 49.8773 19.4252 50.0674 19.4268C50.9196 19.4378 51.7718 19.4346 52.6241 19.4268ZM72.8946 17.252C73.558 17.2395 74.0783 17.5465 74.4053 18.1172C75.6648 20.3076 76.9091 22.506 78.1592 24.7012C78.1778 24.7353 78.1938 24.7709 78.2305 24.8506C77.3649 24.8505 76.5449 24.8256 75.7295 24.8633C75.316 24.8822 75.0976 24.7494 74.8994 24.3877C74.2831 23.2619 73.6222 22.1599 72.9776 21.0498C72.9289 20.965 72.8787 20.8813 72.8018 20.751C71.7183 22.7685 70.6563 24.745 69.5791 26.75C69.6908 26.7579 69.7636 26.7656 69.836 26.7656C72.7873 26.7609 75.7387 26.7577 78.6885 26.7451C78.9338 26.7451 79.0809 26.8022 79.1973 27.0381C79.4976 27.6417 79.8356 28.228 80.1563 28.8223C80.2066 28.9166 80.2502 29.0148 80.3116 29.1406C80.2158 29.1485 80.1463 29.1602 80.0772 29.1602C75.6538 29.1602 71.232 29.1514 66.8086 29.1719C66.134 29.175 65.76 28.5113 66.0791 27.9326C67.0698 26.1384 68.0475 24.3357 69.0303 22.5352C69.8212 21.087 70.6115 19.6377 71.4024 18.1895C71.7247 17.5982 72.2215 17.2645 72.8946 17.252ZM39.6094 19.7539C39.6094 21.9992 39.6124 24.243 39.6045 26.4883C39.6045 26.7226 39.674 26.7799 39.9004 26.7783C41.3377 26.7689 42.7766 26.7734 44.2139 26.7734H44.5225C44.2379 27.4229 43.9451 28.0317 43.7061 28.6592C43.5583 29.0489 43.3501 29.1762 42.9209 29.1699C41.0152 29.1401 39.1089 29.1572 37.2032 29.1572H36.8936V19.4482L36.8926 19.4473H39.6094V19.7539ZM99.6192 21.5225H94.9297V22.9814H98.8018V25.2383H94.9248V26.9219H99.7012C99.8002 26.9219 99.901 26.9318 100 26.9365V29.1406C99.9419 29.1453 99.8834 29.1553 99.8252 29.1553H92.6289C92.5709 29.1552 92.5124 29.1486 92.4356 29.1455V19.333H99.6192V21.5225ZM26.418 17.2383C28.0817 17.2493 29.7477 17.2081 31.4082 17.2852C33.6567 17.3891 35.1225 19.1881 34.959 21.4336C34.819 23.3646 33.3638 24.7557 31.3448 24.9287C30.664 24.9869 29.9755 24.9527 29.2901 24.959H28.9678V29.1436H26.3174V17.2568C26.355 17.2506 26.3867 17.2384 26.418 17.2383ZM59.6885 19.4434C59.7671 19.4437 59.8709 19.542 59.918 19.6221C60.4904 20.6017 61.055 21.5846 61.6211 22.5674C61.662 22.6381 61.7055 22.7065 61.7715 22.8135C62.0011 22.4015 62.2155 22.0185 62.4278 21.6348C62.7987 20.9636 63.1646 20.2905 63.545 19.624C63.5921 19.5407 63.7094 19.4449 63.7959 19.4434C64.6905 19.4308 65.585 19.4355 66.4795 19.4355C66.5094 19.4355 66.5396 19.4414 66.6104 19.4492C66.3997 19.7936 66.2077 20.1117 66.0127 20.4277C65.074 21.9562 64.1331 23.4811 63.2022 25.0127C63.1173 25.1525 63.0691 25.3366 63.0674 25.5C63.0564 26.6181 63.0616 27.7368 63.0616 28.8564V29.1396H60.2764V28.8643C60.2764 27.7463 60.2821 26.6267 60.2696 25.5088C60.268 25.3453 60.2167 25.1624 60.1319 25.0225C59.05 23.2409 57.9569 21.464 56.8672 19.6855C56.8251 19.6184 56.789 19.5463 56.7285 19.4346C57.7511 19.4346 58.7192 19.4308 59.6885 19.4434ZM49.8155 25.0303H52.6319C52.1711 23.8792 51.7187 22.7467 51.2422 21.5547C50.7516 22.7514 50.2872 23.8808 49.8155 25.0303ZM78.2325 24.8516L78.2315 24.8535L78.2305 24.8506L78.2325 24.8516ZM29.0928 19.4365C29.0553 19.4367 29.0176 19.4564 28.9785 19.4658V22.7812H30.6299C31.449 22.7748 32.0546 22.2589 32.1992 21.4492C32.3911 20.3705 31.713 19.4978 30.6201 19.4443C30.1122 19.4192 29.6023 19.4365 29.0928 19.4365ZM56.7285 19.4346L56.7256 19.4355L56.7266 19.4316L56.7285 19.4346Z" fill="url(#paint0_linear_4617_137242)"/>
</g>
<defs>
<linearGradient id="paint0_linear_4617_137242" x1="16.9951" y1="3.71458" x2="44.9882" y2="61.5353" gradientUnits="userSpaceOnUse">
<stop stop-color="#FB8466"/>
<stop offset="0.274634" stop-color="#BD5BD4"/>
<stop offset="0.62615" stop-color="#7473FA"/>
<stop offset="1" stop-color="#53B2FA"/>
</linearGradient>
<clipPath id="clip0_4617_137242">
<rect width="100" height="48" fill="white"/>
</clipPath>
</defs>
</svg>
