<svg width="100" height="48" viewBox="0 0 100 48" fill="none" xmlns="http://www.w3.org/2000/svg">
<path d="M39.6175 26.0063C39.646 26.3494 39.6807 26.6836 39.7147 27.01C39.9095 28.8826 40.0776 30.4992 38.8895 32.0676C35.349 36.4566 30.6197 37.7733 26.2766 37.7733C18.9442 37.7733 13 31.8782 13 24.6061C13 17.3341 18.9442 11.4389 26.2766 11.4389C29.9785 11.4389 33.6049 13.4043 36.0128 15.828C35.349 16.7058 34.2426 17.8031 33.7754 18.4471C31.9896 16.3108 29.2933 14.9502 26.2766 14.9502C20.8995 14.9502 16.5404 19.2733 16.5404 24.6061C16.5404 29.939 20.8995 34.2621 26.2766 34.2621C29.3001 34.2621 33.2875 33.3073 36.0128 30.3119C37.2109 28.9952 37.0845 28.6227 37.1192 28.1174C38.2229 27.2257 38.7835 26.4712 39.6175 26.0063Z" fill="url(#paint0_linear_4658_138158)"/>
<path fill-rule="evenodd" clip-rule="evenodd" d="M49.732 37.7733C57.0645 37.7733 63.0087 31.8782 63.0087 24.6061C63.0087 17.3341 57.0645 11.4389 49.732 11.4389C42.3996 11.4389 36.4554 17.3341 36.4554 24.6061C36.4554 31.8782 42.3996 37.7733 49.732 37.7733ZM49.732 34.2621C55.1092 34.2621 59.4683 29.939 59.4683 24.6061C59.4683 19.2733 55.1092 14.9502 49.732 14.9502C44.3549 14.9502 39.9958 19.2733 39.9958 24.6061C39.9958 29.939 44.3549 34.2621 49.732 34.2621Z" fill="url(#paint1_linear_4658_138158)"/>
<path fill-rule="evenodd" clip-rule="evenodd" d="M76.2853 32.0676C82.1513 32.0676 86.9066 27.3514 86.9066 21.5338C86.9066 15.7161 82.1513 11 76.2853 11C70.4193 11 65.664 15.7161 65.664 21.5338C65.664 27.3514 70.4193 32.0676 76.2853 32.0676ZM76.2853 28.5563C80.196 28.5563 83.3662 25.4122 83.3662 21.5338C83.3662 17.6553 80.196 14.5113 76.2853 14.5113C72.3747 14.5113 69.2045 17.6553 69.2045 21.5338C69.2045 25.4122 72.3747 28.5563 76.2853 28.5563Z" fill="url(#paint2_linear_4658_138158)"/>
<path d="M49.732 26.1423C46.1916 26.1423 43.3888 26.5081 42.4299 26.8007C42.6512 27.6785 43.7576 30.3119 43.7576 30.3119C43.7576 30.3119 53.8981 28.2098 59.4683 32.5065C67.4342 38.6512 74.0726 38.2123 76.7279 37.7733C79.3832 37.3344 83.1449 36.0177 85.3577 31.8481C87.5705 27.6785 86.9066 21.5338 86.9066 21.5338H85.3577L82.2598 29.873C82.4811 30.9703 79.2947 33.911 74.5151 34.2621C68.5406 34.701 65.4758 31.9468 61.9023 29.6536C58.1406 27.2396 54.1576 26.1423 49.732 26.1423Z" fill="url(#paint3_linear_4658_138158)"/>
<defs>
<linearGradient id="paint0_linear_4658_138158" x1="25.5764" y1="1.0493" x2="66.522" y2="53.8732" gradientUnits="userSpaceOnUse">
<stop stop-color="#FB8466"/>
<stop offset="0.274634" stop-color="#BD5BD4"/>
<stop offset="0.62615" stop-color="#7473FA"/>
<stop offset="1" stop-color="#53B2FA"/>
</linearGradient>
<linearGradient id="paint1_linear_4658_138158" x1="25.5764" y1="1.0493" x2="66.522" y2="53.8732" gradientUnits="userSpaceOnUse">
<stop stop-color="#FB8466"/>
<stop offset="0.274634" stop-color="#BD5BD4"/>
<stop offset="0.62615" stop-color="#7473FA"/>
<stop offset="1" stop-color="#53B2FA"/>
</linearGradient>
<linearGradient id="paint2_linear_4658_138158" x1="25.5764" y1="1.0493" x2="66.522" y2="53.8732" gradientUnits="userSpaceOnUse">
<stop stop-color="#FB8466"/>
<stop offset="0.274634" stop-color="#BD5BD4"/>
<stop offset="0.62615" stop-color="#7473FA"/>
<stop offset="1" stop-color="#53B2FA"/>
</linearGradient>
<linearGradient id="paint3_linear_4658_138158" x1="25.5764" y1="1.0493" x2="66.522" y2="53.8732" gradientUnits="userSpaceOnUse">
<stop stop-color="#FB8466"/>
<stop offset="0.274634" stop-color="#BD5BD4"/>
<stop offset="0.62615" stop-color="#7473FA"/>
<stop offset="1" stop-color="#53B2FA"/>
</linearGradient>
</defs>
</svg>
