<svg width="100" height="48" viewBox="0 0 100 48" fill="none" xmlns="http://www.w3.org/2000/svg">
<path d="M38.4321 11.6882H54.5375V15.601H42.6177V21.3081H50.5531V25.2209H42.6177V31.6109H54.9067V35.5238H38.4321V11.6882Z" fill="url(#paint0_linear_4658_138155)"/>
<path d="M53.7466 18.5794H58.0321L61.7818 30.3893L65.2638 18.5794H69.4161L63.6567 35.5221H59.8055L53.7466 18.5794Z" fill="url(#paint1_linear_4658_138155)"/>
<path d="M68.76 27.0864C68.76 21.918 72.1088 18.2566 76.8966 18.2566C81.6512 18.2566 85 21.918 85 27.0864C85 32.1835 81.5846 35.8449 76.7968 35.8449C72.0406 35.8449 68.76 32.2549 68.76 27.0864ZM80.7795 27.1935V27.0508C80.7795 23.8209 79.3056 21.8823 76.895 21.8823C74.4512 21.8823 72.9773 23.8209 72.9773 27.0508V27.1935C72.9773 30.352 74.4163 32.2192 76.8285 32.2192C79.2723 32.2192 80.7795 30.3537 80.7795 27.1935Z" fill="url(#paint2_linear_4658_138155)"/>
<path d="M32.5317 38.6466C31.8185 38.6466 31.2416 38.0265 31.2416 37.2619C31.2432 36.4956 31.8201 35.8772 32.5317 35.8772C33.2465 35.8772 33.8218 36.4956 33.8233 37.2619C33.8218 38.0265 33.2449 38.6466 32.5317 38.6466ZM32.5317 35.5221C31.6378 35.5221 30.912 36.302 30.912 37.2619C30.912 38.2218 31.6378 39 32.5317 39C33.4271 39 34.153 38.2218 34.153 37.2619C34.153 36.302 33.4271 35.5221 32.5317 35.5221Z" fill="url(#paint3_linear_4658_138155)"/>
<path d="M29.885 22.776C31.1751 22.8202 32.5903 22.7828 34.153 22.6503C33.928 19.2777 32.9041 16.476 31.37 14.3047C31.4429 14.8993 31.4841 15.5042 31.4841 16.1209C31.4841 18.5353 30.9025 20.8035 29.885 22.776Z" fill="url(#paint4_linear_4658_138155)"/>
<path d="M29.3445 23.7326C27.0433 27.4466 23.1081 29.8949 18.6372 29.8949C18.3187 29.8949 18.0033 29.8779 17.6911 29.8542C16.55 31.7299 15.813 33.8129 15 35.7719C23.0194 40.3626 33.3748 35.5221 34.153 23.8345C32.3685 23.6833 30.7757 23.6561 29.3445 23.7326Z" fill="url(#paint5_linear_4658_138155)"/>
<path d="M15 10.7146C17.2299 16.0938 18.9003 22.4073 29.885 22.776C30.9025 20.8035 31.4841 18.5353 31.4841 16.1209C31.4841 15.5042 31.4429 14.8993 31.37 14.3047C27.5885 8.95786 20.7039 7.44912 15 10.7146Z" fill="url(#paint6_linear_4658_138155)"/>
<path d="M29.3445 23.7326C22.7341 24.0826 19.6294 26.6668 17.6911 29.8542C18.0033 29.8779 18.3187 29.8949 18.6372 29.8949C23.1081 29.8949 27.0433 27.4449 29.3445 23.7326Z" fill="url(#paint7_linear_4658_138155)"/>
<path d="M31.912 36.98H31.6695V36.8084H32.3574V36.98H32.1165V37.7156H31.912V36.98Z" fill="url(#paint8_linear_4658_138155)"/>
<path d="M32.443 36.8066H32.7663L32.9216 37.3859L33.0832 36.8066H33.3986V37.7138H33.1973V36.9816L32.9834 37.7138H32.8233L32.6173 36.985V37.7138H32.443V36.8066Z" fill="url(#paint9_linear_4658_138155)"/>
<defs>
<linearGradient id="paint0_linear_4658_138155" x1="26.8966" y1="-2.05634" x2="73.6698" y2="49.3159" gradientUnits="userSpaceOnUse">
<stop stop-color="#FB8466"/>
<stop offset="0.274634" stop-color="#BD5BD4"/>
<stop offset="0.62615" stop-color="#7473FA"/>
<stop offset="1" stop-color="#53B2FA"/>
</linearGradient>
<linearGradient id="paint1_linear_4658_138155" x1="26.8966" y1="-2.05634" x2="73.6698" y2="49.3159" gradientUnits="userSpaceOnUse">
<stop stop-color="#FB8466"/>
<stop offset="0.274634" stop-color="#BD5BD4"/>
<stop offset="0.62615" stop-color="#7473FA"/>
<stop offset="1" stop-color="#53B2FA"/>
</linearGradient>
<linearGradient id="paint2_linear_4658_138155" x1="26.8966" y1="-2.05634" x2="73.6698" y2="49.3159" gradientUnits="userSpaceOnUse">
<stop stop-color="#FB8466"/>
<stop offset="0.274634" stop-color="#BD5BD4"/>
<stop offset="0.62615" stop-color="#7473FA"/>
<stop offset="1" stop-color="#53B2FA"/>
</linearGradient>
<linearGradient id="paint3_linear_4658_138155" x1="26.8966" y1="-2.05634" x2="73.6698" y2="49.3159" gradientUnits="userSpaceOnUse">
<stop stop-color="#FB8466"/>
<stop offset="0.274634" stop-color="#BD5BD4"/>
<stop offset="0.62615" stop-color="#7473FA"/>
<stop offset="1" stop-color="#53B2FA"/>
</linearGradient>
<linearGradient id="paint4_linear_4658_138155" x1="26.8966" y1="-2.05634" x2="73.6698" y2="49.3159" gradientUnits="userSpaceOnUse">
<stop stop-color="#FB8466"/>
<stop offset="0.274634" stop-color="#BD5BD4"/>
<stop offset="0.62615" stop-color="#7473FA"/>
<stop offset="1" stop-color="#53B2FA"/>
</linearGradient>
<linearGradient id="paint5_linear_4658_138155" x1="26.8966" y1="-2.05634" x2="73.6698" y2="49.3159" gradientUnits="userSpaceOnUse">
<stop stop-color="#FB8466"/>
<stop offset="0.274634" stop-color="#BD5BD4"/>
<stop offset="0.62615" stop-color="#7473FA"/>
<stop offset="1" stop-color="#53B2FA"/>
</linearGradient>
<linearGradient id="paint6_linear_4658_138155" x1="26.8966" y1="-2.05634" x2="73.6698" y2="49.3159" gradientUnits="userSpaceOnUse">
<stop stop-color="#FB8466"/>
<stop offset="0.274634" stop-color="#BD5BD4"/>
<stop offset="0.62615" stop-color="#7473FA"/>
<stop offset="1" stop-color="#53B2FA"/>
</linearGradient>
<linearGradient id="paint7_linear_4658_138155" x1="26.8966" y1="-2.05634" x2="73.6698" y2="49.3159" gradientUnits="userSpaceOnUse">
<stop stop-color="#FB8466"/>
<stop offset="0.274634" stop-color="#BD5BD4"/>
<stop offset="0.62615" stop-color="#7473FA"/>
<stop offset="1" stop-color="#53B2FA"/>
</linearGradient>
<linearGradient id="paint8_linear_4658_138155" x1="26.8966" y1="-2.05634" x2="73.6698" y2="49.3159" gradientUnits="userSpaceOnUse">
<stop stop-color="#FB8466"/>
<stop offset="0.274634" stop-color="#BD5BD4"/>
<stop offset="0.62615" stop-color="#7473FA"/>
<stop offset="1" stop-color="#53B2FA"/>
</linearGradient>
<linearGradient id="paint9_linear_4658_138155" x1="26.8966" y1="-2.05634" x2="73.6698" y2="49.3159" gradientUnits="userSpaceOnUse">
<stop stop-color="#FB8466"/>
<stop offset="0.274634" stop-color="#BD5BD4"/>
<stop offset="0.62615" stop-color="#7473FA"/>
<stop offset="1" stop-color="#53B2FA"/>
</linearGradient>
</defs>
</svg>
