<svg width="100" height="48" viewBox="0 0 100 48" fill="none" xmlns="http://www.w3.org/2000/svg">
<path d="M79.1191 8.0127C83.7236 8.0127 86.4257 11.5484 86.4258 15.0479C86.4258 16.8774 85.5535 18.7443 84.3379 20.1318C89.3231 20.5125 92.0123 24.6751 92 29.2061C91.9998 35.333 87.1129 39.8886 80.2861 39.8887H66.4844L68.6455 33.749H80.1016C83.994 33.749 86.1064 31.6734 86.1064 29.2422C86.1063 26.2464 83.7606 25.6201 81.9434 25.6201H71.7275C71.7528 25.5936 78.1385 18.878 79.1562 17.7744C79.991 16.866 80.3348 16.129 80.335 15.6133C80.335 14.5943 79.5002 14.1153 78.874 14.1152H63.7705L61.6221 8.0127H79.1191ZM36.7051 15.79L36.6289 16.0059H37.04L32.6436 28.457C31.0964 32.8895 29.0337 35.91 26.3447 37.6904C24.0609 39.2007 21.3471 39.876 17.5283 39.876H8L10.1611 33.7363H16.5703C19.2838 33.7363 21.2979 33.5156 22.9678 32.251C23.8129 31.6095 24.6387 30.7255 25.4326 29.4932H24.876C25.668 28.2486 26.4348 26.6518 27.1514 24.6152C29.8512 16.9281 30.2765 15.7283 30.2812 15.7148H36.7305L36.7051 15.79ZM50.7793 8.0127C61.3144 8.0127 63.439 18.8296 61.0693 25.8408C58.8469 32.3978 54.6842 39.8633 43.0684 39.8633H31.0352L34.6807 29.4932H34.3301L39.1699 15.7148H45.6182L45.5156 16.0059H45.7207L39.4834 33.7607H40.5762C47.5136 33.7607 52.4369 32.2383 55.04 24.5273C56.6731 19.6772 55.433 14.1025 50.1162 14.1025H40.085L42.2217 8.0127H50.7793ZM68.75 29.0156H68.2959L64.4834 39.8633H58.1836L66.5703 16.0059H66.8633L66.9648 15.7148H73.4141L68.75 29.0156ZM37.7031 14.1025H21.0527L18.916 8H39.8516L37.7031 14.1025Z" fill="url(#paint0_linear_4617_137287)"/>
<defs>
<linearGradient id="paint0_linear_4617_137287" x1="21.6158" y1="-4.51349" x2="71.5806" y2="57.4404" gradientUnits="userSpaceOnUse">
<stop stop-color="#FB8466"/>
<stop offset="0.274634" stop-color="#BD5BD4"/>
<stop offset="0.62615" stop-color="#7473FA"/>
<stop offset="1" stop-color="#53B2FA"/>
</linearGradient>
</defs>
</svg>
