<svg width="100" height="48" viewBox="0 0 100 48" fill="none" xmlns="http://www.w3.org/2000/svg">
<path d="M17.8747 33.8483V13.3123C17.8747 12.7823 17.3495 12.6498 16.8771 12.6498C16.3228 12.6498 15.2142 12.6498 15.2143 11.6561C15.2143 10.3312 15.8794 10.3312 16.2119 10.3312H28.1842C28.5167 10.3312 28.8493 10.6625 28.8493 11.6561C28.8493 12.3186 28.1842 12.6498 27.8516 12.6498C26.8539 12.6498 26.8539 13.3123 26.8539 13.3123V31.8609C26.8539 33.8483 25.5236 35.1732 23.5283 36.4981C21.0044 38.174 17.9856 38.1542 16.5445 37.823V35.1732C16.5445 35.1732 17.8747 34.5107 17.8747 33.8483Z" fill="url(#paint0_linear_4658_138141)"/>
<path d="M8.89565 34.8419C10.2259 36.8293 13.5515 37.823 14.8817 37.823V35.5044C13.6623 35.6148 13.3356 34.9136 13.5514 34.8419C16.5445 33.8483 16.8771 31.5297 16.5445 30.2048C16.3025 29.2408 14.5492 25.8988 10.891 27.2237C7.52482 28.4429 7.30878 32.4711 8.89565 34.8419Z" fill="url(#paint1_linear_4658_138141)"/>
<path d="M30.8446 11.3249C30.8446 10.5932 31.4402 10 32.1749 10H43.482C44.2166 10 44.8122 10.5932 44.8122 11.3249V11.4997C44.8122 12.0016 44.5275 12.4603 44.0769 12.6848L42.8168 13.3123V34.5107L43.9026 34.8712C44.4458 35.0515 44.8122 35.5578 44.8122 36.1281V36.4981C44.8122 37.2298 44.2166 37.823 43.482 37.823H32.1749C31.4402 37.823 30.8446 37.2298 30.8446 36.4981V36.1281C30.8446 35.5578 31.211 35.0515 31.7542 34.8712L32.84 34.5107V13.3123L31.58 12.6848C31.1293 12.4603 30.8446 12.0016 30.8446 11.4997V11.3249Z" fill="url(#paint2_linear_4658_138141)"/>
<path d="M68.0915 11.3249C68.0915 10.5932 68.6871 10 69.4217 10H80.7288C81.4635 10 82.0591 10.5932 82.0591 11.3249V11.4997C82.0591 12.0016 81.7744 12.4603 81.3237 12.6848L80.0637 13.3123V34.5107L81.1495 34.8712C81.6927 35.0515 82.0591 35.5578 82.0591 36.1281V36.4981C82.0591 37.2298 81.4635 37.823 80.7288 37.823H69.4217C68.6871 37.823 68.0915 37.2298 68.0915 36.4981V36.1281C68.0915 35.5578 68.4579 35.0515 69.0011 34.8712L70.0868 34.5107V13.3123L68.8268 12.6848C68.3762 12.4603 68.0915 12.0016 68.0915 11.4997V11.3249Z" fill="url(#paint3_linear_4658_138141)"/>
<path d="M46.8076 11.3249C46.8076 10.5932 47.4031 10 48.1378 10H59.4449C60.1796 10 60.7751 10.5932 60.7751 11.3249V11.4997C60.7751 12.0016 60.4905 12.4603 60.0398 12.6848L58.7798 13.3123V37.823H48.1378C47.4031 37.823 46.8076 37.2298 46.8076 36.4981V36.1281C46.8076 35.5578 47.174 35.0515 47.7172 34.8712L48.8029 34.5107V13.3123L47.5429 12.6848C47.0923 12.4603 46.8076 12.0016 46.8076 11.4997V11.3249Z" fill="url(#paint4_linear_4658_138141)"/>
<path d="M63.1031 32.1921C64.1887 30.6783 64.8491 29.0233 65.1767 28.0568C65.3412 27.5716 65.7917 27.2237 66.3059 27.2237C66.9247 27.2237 67.4264 27.7234 67.4264 28.3397V37.823H59.4449V35.1732C59.4449 35.1732 61.4403 34.5107 63.1031 32.1921Z" fill="url(#paint5_linear_4658_138141)"/>
<defs>
<linearGradient id="paint0_linear_4658_138141" x1="20.5378" y1="-0.319248" x2="63.3453" y2="53.019" gradientUnits="userSpaceOnUse">
<stop stop-color="#FB8466"/>
<stop offset="0.274634" stop-color="#BD5BD4"/>
<stop offset="0.62615" stop-color="#7473FA"/>
<stop offset="1" stop-color="#53B2FA"/>
</linearGradient>
<linearGradient id="paint1_linear_4658_138141" x1="20.5378" y1="-0.319248" x2="63.3453" y2="53.019" gradientUnits="userSpaceOnUse">
<stop stop-color="#FB8466"/>
<stop offset="0.274634" stop-color="#BD5BD4"/>
<stop offset="0.62615" stop-color="#7473FA"/>
<stop offset="1" stop-color="#53B2FA"/>
</linearGradient>
<linearGradient id="paint2_linear_4658_138141" x1="20.5378" y1="-0.319248" x2="63.3453" y2="53.019" gradientUnits="userSpaceOnUse">
<stop stop-color="#FB8466"/>
<stop offset="0.274634" stop-color="#BD5BD4"/>
<stop offset="0.62615" stop-color="#7473FA"/>
<stop offset="1" stop-color="#53B2FA"/>
</linearGradient>
<linearGradient id="paint3_linear_4658_138141" x1="20.5378" y1="-0.319248" x2="63.3453" y2="53.019" gradientUnits="userSpaceOnUse">
<stop stop-color="#FB8466"/>
<stop offset="0.274634" stop-color="#BD5BD4"/>
<stop offset="0.62615" stop-color="#7473FA"/>
<stop offset="1" stop-color="#53B2FA"/>
</linearGradient>
<linearGradient id="paint4_linear_4658_138141" x1="20.5378" y1="-0.319248" x2="63.3453" y2="53.019" gradientUnits="userSpaceOnUse">
<stop stop-color="#FB8466"/>
<stop offset="0.274634" stop-color="#BD5BD4"/>
<stop offset="0.62615" stop-color="#7473FA"/>
<stop offset="1" stop-color="#53B2FA"/>
</linearGradient>
<linearGradient id="paint5_linear_4658_138141" x1="20.5378" y1="-0.319248" x2="63.3453" y2="53.019" gradientUnits="userSpaceOnUse">
<stop stop-color="#FB8466"/>
<stop offset="0.274634" stop-color="#BD5BD4"/>
<stop offset="0.62615" stop-color="#7473FA"/>
<stop offset="1" stop-color="#53B2FA"/>
</linearGradient>
</defs>
</svg>
