<svg width="100" height="48" viewBox="0 0 100 48" fill="none" xmlns="http://www.w3.org/2000/svg">
<path d="M86.7982 20.0833V16.6127C86.7982 16.2744 87.0724 16.0002 87.4107 16.0002H99.3875C99.7258 16.0002 100 16.2744 100 16.6127V20.0833C100 20.4215 99.7258 20.6957 99.3875 20.6957H95.985C95.8347 20.6957 95.7128 20.8176 95.7128 20.9679V31.5157C95.7128 31.8352 95.4538 32.0942 95.1344 32.0942H91.6638C91.3444 32.0942 91.0854 31.8352 91.0854 31.5157V20.9679C91.0854 20.8176 90.9635 20.6957 90.8132 20.6957H87.4107C87.0724 20.6957 86.7982 20.4215 86.7982 20.0833Z" fill="url(#paint0_linear_4658_138144)"/>
<path d="M4.42327 16.0002H0.612453C0.274205 16.0002 0 16.2744 0 16.6127V31.5157C0 31.854 0.274205 32.1282 0.612453 32.1282H4.73919C4.92536 32.1282 5.10015 32.0386 5.20883 31.8874L8.38721 27.4667L11.7387 32.1282H17.9653L11.5644 23.3383C11.521 23.2787 11.5209 23.198 11.5642 23.1383L15.7223 17.4042C16.1464 16.8194 15.7286 16.0002 15.0061 16.0002H10.8936C10.6763 16.0002 10.4721 16.1041 10.3439 16.2796L5.03573 23.5538V16.6127C5.03573 16.2744 4.76152 16.0002 4.42327 16.0002Z" fill="url(#paint1_linear_4658_138144)"/>
<path d="M24.2649 16.0002C28.7185 16.0002 32.3288 19.6106 32.3288 24.0642C32.3288 28.5178 28.7185 32.1282 24.2649 32.1282C19.8113 32.1282 16.2009 28.5178 16.2009 24.0642C16.2009 19.6106 19.8113 16.0002 24.2649 16.0002ZM24.2649 20.6787C22.3951 20.6787 20.8794 22.1944 20.8794 24.0642C20.8794 25.934 22.3951 27.4497 24.2649 27.4497C26.1346 27.4497 27.6504 25.934 27.6504 24.0642C27.6504 22.1944 26.1346 20.6787 24.2649 20.6787Z" fill="url(#paint2_linear_4658_138144)"/>
<path d="M34.9609 16.0002C39.4145 16.0002 43.0248 19.6106 43.0248 24.0642C43.0248 28.5178 39.4145 32.1282 34.9609 32.1282C33.3774 32.1282 31.9005 31.6718 30.6546 30.8833C31.8517 29.9731 32.7898 28.6209 33.3074 27.0192C33.7964 27.2934 34.3604 27.4497 34.9609 27.4497C36.8306 27.4497 38.3464 25.934 38.3464 24.0642C38.3464 22.1944 36.8306 20.6787 34.9609 20.6787C34.3408 20.6787 33.7597 20.8454 33.2599 21.1365C32.7152 19.5435 31.7514 18.2077 30.5321 17.3242C31.8032 16.4872 33.3252 16.0002 34.9609 16.0002Z" fill="url(#paint3_linear_4658_138144)"/>
<path d="M48.7241 16.0343H45.3228C44.9841 16.0343 44.7097 16.3093 44.7104 16.648L44.7415 31.3132C44.7424 31.7448 45.0925 32.0942 45.524 32.0942H55.8013C56.1395 32.0942 56.4137 31.8199 56.4137 31.4817V27.841C56.4137 27.5028 56.1395 27.2286 55.8013 27.2286H49.6768C49.4888 27.2286 49.3365 27.0762 49.3365 26.8883V16.6467C49.3365 16.3085 49.0623 16.0343 48.7241 16.0343Z" fill="url(#paint4_linear_4658_138144)"/>
<path fill-rule="evenodd" clip-rule="evenodd" d="M64.2395 16.0343C65.8319 16.0343 66.2598 16.0513 66.868 16.315C70.969 18.093 70.296 21.9036 69.4114 23.2901C72.6778 26.8032 70.211 31.7709 66.0429 32.1112H59.0847C58.6149 32.1112 58.2341 31.7303 58.2341 31.2605V16.6127C58.2341 16.2932 58.493 16.0343 58.8125 16.0343H64.2395ZM63.0827 25.7995C62.9511 25.7995 62.8445 25.9061 62.8445 26.0377V27.841C62.8445 27.9725 62.9511 28.0792 63.0827 28.0792H65.7537C66.3738 28.0792 66.8765 27.5765 66.8765 26.9564V26.9223C66.8765 26.3022 66.3738 25.7995 65.7537 25.7995H63.0827ZM63.0827 20.0152C62.9511 20.0152 62.8445 20.1219 62.8445 20.2534V21.5974C62.8445 21.7289 62.9511 21.8356 63.0827 21.8356H65.2093C65.679 21.8356 66.0599 21.4547 66.0599 20.9849V20.8658C66.0599 20.3961 65.679 20.0152 65.2093 20.0152H63.0827Z" fill="url(#paint5_linear_4658_138144)"/>
<path d="M84.2804 16.0343H73.1541C72.8723 16.0343 72.6438 16.2628 72.6438 16.5446V31.1925C72.6438 31.6623 73.0246 32.0431 73.4944 32.0431H84.2804C84.581 32.0431 84.8248 31.7994 84.8248 31.4987V28.3514C84.8248 28.0507 84.581 27.807 84.2804 27.807H77.6114C77.4047 27.807 77.2372 27.6394 77.2372 27.4327V26.7182C77.2372 26.5115 77.4047 26.3439 77.6114 26.3439H84.2804C84.581 26.3439 84.8248 26.1002 84.8248 25.7995V22.6011C84.8248 22.3005 84.581 22.0567 84.2804 22.0567H77.6114C77.4047 22.0567 77.2372 21.8892 77.2372 21.6824V21.0019C77.2372 20.7952 77.4047 20.6277 77.6114 20.6277H84.2804C84.581 20.6277 84.8248 20.3839 84.8248 20.0833V16.5787C84.8248 16.278 84.581 16.0343 84.2804 16.0343Z" fill="url(#paint6_linear_4658_138144)"/>
<defs>
<linearGradient id="paint0_linear_4658_138144" x1="16.9951" y1="10.0564" x2="32.4836" y2="55.2613" gradientUnits="userSpaceOnUse">
<stop stop-color="#FB8466"/>
<stop offset="0.274634" stop-color="#BD5BD4"/>
<stop offset="0.62615" stop-color="#7473FA"/>
<stop offset="1" stop-color="#53B2FA"/>
</linearGradient>
<linearGradient id="paint1_linear_4658_138144" x1="16.9951" y1="10.0564" x2="32.4836" y2="55.2613" gradientUnits="userSpaceOnUse">
<stop stop-color="#FB8466"/>
<stop offset="0.274634" stop-color="#BD5BD4"/>
<stop offset="0.62615" stop-color="#7473FA"/>
<stop offset="1" stop-color="#53B2FA"/>
</linearGradient>
<linearGradient id="paint2_linear_4658_138144" x1="16.9951" y1="10.0564" x2="32.4836" y2="55.2613" gradientUnits="userSpaceOnUse">
<stop stop-color="#FB8466"/>
<stop offset="0.274634" stop-color="#BD5BD4"/>
<stop offset="0.62615" stop-color="#7473FA"/>
<stop offset="1" stop-color="#53B2FA"/>
</linearGradient>
<linearGradient id="paint3_linear_4658_138144" x1="16.9951" y1="10.0564" x2="32.4836" y2="55.2613" gradientUnits="userSpaceOnUse">
<stop stop-color="#FB8466"/>
<stop offset="0.274634" stop-color="#BD5BD4"/>
<stop offset="0.62615" stop-color="#7473FA"/>
<stop offset="1" stop-color="#53B2FA"/>
</linearGradient>
<linearGradient id="paint4_linear_4658_138144" x1="16.9951" y1="10.0564" x2="32.4836" y2="55.2613" gradientUnits="userSpaceOnUse">
<stop stop-color="#FB8466"/>
<stop offset="0.274634" stop-color="#BD5BD4"/>
<stop offset="0.62615" stop-color="#7473FA"/>
<stop offset="1" stop-color="#53B2FA"/>
</linearGradient>
<linearGradient id="paint5_linear_4658_138144" x1="16.9951" y1="10.0564" x2="32.4836" y2="55.2613" gradientUnits="userSpaceOnUse">
<stop stop-color="#FB8466"/>
<stop offset="0.274634" stop-color="#BD5BD4"/>
<stop offset="0.62615" stop-color="#7473FA"/>
<stop offset="1" stop-color="#53B2FA"/>
</linearGradient>
<linearGradient id="paint6_linear_4658_138144" x1="16.9951" y1="10.0564" x2="32.4836" y2="55.2613" gradientUnits="userSpaceOnUse">
<stop stop-color="#FB8466"/>
<stop offset="0.274634" stop-color="#BD5BD4"/>
<stop offset="0.62615" stop-color="#7473FA"/>
<stop offset="1" stop-color="#53B2FA"/>
</linearGradient>
</defs>
</svg>
