<svg width="100" height="48" viewBox="0 0 100 48" fill="none" xmlns="http://www.w3.org/2000/svg">
<path fill-rule="evenodd" clip-rule="evenodd" d="M66.5525 17.5813C67.9038 17.6027 69.226 17.8186 70.4725 18.3772C72.4096 19.2452 73.6203 20.7582 74.3045 22.7277C74.9014 24.4456 75.0169 26.2279 74.9207 28.0227C74.8275 29.762 74.4186 31.4302 73.5272 32.9475C72.3247 34.9941 70.5356 36.1638 68.1795 36.469C66.5802 36.6762 64.9989 36.531 63.4236 36.2444C63.315 36.2245 63.2044 36.2105 63.0613 36.1887V36.5002C63.0613 38.4767 63.0618 40.4534 63.0604 42.4299C63.0602 42.5752 63.0749 42.7301 63.0311 42.8635C62.982 43.0122 62.8742 43.1418 62.7918 43.2795C61.2687 43.2794 59.7456 43.2795 58.2225 43.2795C58.0072 43.1619 57.9254 42.9735 57.9354 42.7365C57.938 42.672 57.9354 42.6069 57.9354 42.5422C57.935 35.0251 57.9364 27.5076 57.9314 19.9904C57.9312 19.476 58.2086 19.1648 58.6356 18.9885C59.2469 18.736 59.8669 18.4909 60.5027 18.3127C62.4793 17.759 64.5051 17.5488 66.5525 17.5813ZM44.5623 17.7102C45.7564 17.5987 46.9514 17.5115 48.1502 17.6203C50.2246 17.8086 52.1127 18.4294 53.5564 20.0285C54.5361 21.1135 55.1025 22.4108 55.4051 23.8244C55.9044 26.1565 55.8977 28.4858 55.2391 30.7883C54.7855 32.374 54.0189 33.7868 52.7332 34.8635C51.5498 35.8545 50.1709 36.3836 48.6365 36.5129C47.0761 36.6445 45.533 36.511 44.0027 36.1975C43.9718 36.1911 43.9396 36.1892 43.8856 36.1828C43.879 36.2591 43.8683 36.3284 43.868 36.3977C43.8611 38.5036 43.8536 40.6099 43.8523 42.716C43.8522 42.9372 43.8084 43.1281 43.6385 43.2776H39.409C39.3297 43.2666 39.2505 43.2503 39.1707 43.2453C38.8723 43.2272 38.7634 43.1319 38.742 42.8332C38.7269 42.6238 38.7312 42.4128 38.7313 42.2024C38.7316 34.7902 38.734 27.3773 38.7303 19.9651C38.7302 19.5925 38.8883 19.3146 39.1854 19.135C39.4734 18.9606 39.7861 18.8183 40.1023 18.7004C41.5422 18.1639 43.0339 17.8529 44.5623 17.7102ZM43.992 4.1047C47.391 4.4162 50.6044 5.31205 53.5018 7.17208C55.2842 8.31634 56.7678 9.76927 57.9148 11.5568C58.1745 11.9616 58.4146 11.996 58.7772 11.675C60.5843 10.0748 62.6013 8.8246 64.8826 8.01779C66.9846 7.27425 69.1485 6.95499 71.3738 7.13107C73.7866 7.32204 76.0561 8.00447 78.1648 9.2004C78.4385 9.35555 78.7129 9.51369 78.9656 9.69943C79.0887 9.78982 79.2555 9.90541 79.1639 10.1174C79.07 10.3343 78.8514 10.4622 78.6219 10.4514C77.5713 10.4017 76.5195 10.3041 75.4695 10.3166C70.6456 10.3744 66.2158 11.7556 62.1678 14.3713C60.8519 15.2216 59.6253 16.1874 58.4676 17.2424C58.3751 17.3268 58.2577 17.3969 58.1395 17.4367C57.9929 17.4861 57.8582 17.4831 57.742 17.3186C55.498 14.14 52.4796 12.0068 48.8191 10.7561C46.771 10.0562 44.6572 9.78307 42.5037 9.98263C38.6764 10.3373 35.245 11.6776 32.3397 14.2414C30.043 16.2682 28.6454 18.8359 27.8826 21.7727C27.3841 23.6926 27.2271 25.6477 27.3582 27.6233C27.4928 29.6505 27.9637 31.6157 28.5281 33.5598C29.0935 35.5071 29.6695 37.4514 30.2283 39.4006C30.3415 39.7953 30.4145 40.204 30.4754 40.6106C30.5033 40.797 30.4825 41.0005 30.4393 41.1858C30.3601 41.525 30.026 41.7443 29.6688 41.6379C29.2957 41.5267 28.9054 41.3867 28.5965 41.1594C26.9517 39.9483 25.5638 38.4839 24.4383 36.7766C22.9169 34.4687 21.9649 31.9327 21.4285 29.2307C21.0017 27.08 20.9525 24.9087 21.0311 22.7268C21.1219 20.1993 21.6439 17.7705 22.6961 15.469C24.3252 11.9057 26.8212 9.10544 30.1775 7.07833C32.3022 5.79512 34.5818 4.89561 37.0174 4.42794C38.0149 4.23635 39.0371 4.17173 40.0477 4.04806C40.1429 4.03635 40.237 4.01627 40.3318 4.00021C41.1421 3.99974 41.9524 4.00021 42.7625 4.00021C43.1723 4.03502 43.5826 4.06708 43.992 4.1047ZM66.0125 22.0627C65.1136 21.9981 64.2405 22.147 63.368 22.3391C63.1068 22.3967 63.0407 22.5012 63.0428 22.7561C63.0553 24.1979 63.0486 25.6404 63.0486 27.0822H63.0516C63.0516 28.5323 63.0577 29.9829 63.0457 31.4328C63.0437 31.6766 63.1217 31.7791 63.3563 31.8127C63.6759 31.8585 63.9907 31.9421 64.3104 31.9875C65.0814 32.0973 65.8575 32.1789 66.6316 32.0373C67.9513 31.7957 68.7911 30.9932 69.2127 29.7424C69.7383 28.1825 69.7464 26.5808 69.4275 24.9934C69.0392 23.0602 67.9853 22.2049 66.0125 22.0627ZM46.8543 22.0647C45.906 21.9894 44.985 22.1508 44.0672 22.3586C43.9016 22.3961 43.8496 22.4644 43.8504 22.635C43.8573 24.1088 43.8543 25.583 43.8543 27.0568H43.8621C43.8621 28.5308 43.8675 30.0049 43.8572 31.4787C43.8559 31.6832 43.9214 31.7596 44.1121 31.8C44.9689 31.981 45.8303 32.1155 46.7098 32.1018C48.3307 32.0762 49.4319 31.3312 49.9773 29.801C50.5641 28.1545 50.5543 26.4582 50.1707 24.7766C49.7902 23.1088 48.829 22.2211 46.8543 22.0647Z" fill="url(#paint0_linear_4617_137226)"/>
<defs>
<linearGradient id="paint0_linear_4617_137226" x1="30.8895" y1="-10.4762" x2="88.6087" y2="29.7731" gradientUnits="userSpaceOnUse">
<stop stop-color="#FB8466"/>
<stop offset="0.274634" stop-color="#BD5BD4"/>
<stop offset="0.62615" stop-color="#7473FA"/>
<stop offset="1" stop-color="#53B2FA"/>
</linearGradient>
</defs>
</svg>
