<svg width="84" height="78" viewBox="0 0 84 78" fill="none" xmlns="http://www.w3.org/2000/svg">
<mask id="mask0_4442_191" style="mask-type:alpha" maskUnits="userSpaceOnUse" x="0" y="0" width="84" height="78">
<rect width="84" height="78" fill="#D9D9D9"/>
</mask>
<g mask="url(#mask0_4442_191)">
<path opacity="0.9" d="M-322 1H76.4346C74.9455 1.50942 73.3012 2.13444 71.5713 2.89746C64.8137 5.87802 56.6597 10.9843 51.333 19.4678C48.043 24.7076 45.5914 32.3179 43.7646 40.2451C39.0698 60.6183 22.3746 77 1.68262 77H-336V15C-336 7.38882 -329.926 1.19654 -322.361 1.00488L-322 1Z" fill="url(#paint0_linear_4442_191)" stroke="url(#paint1_linear_4442_191)" stroke-width="2"/>
<path opacity="0.7" d="M-337 15C-337 6.71573 -330.284 0 -322 0H83C83 0 61.598 3.5 51.266 20C48.0777 25.0917 45.6624 32.5639 43.8467 40.4627C39.0831 61.1856 22.0604 78 0.797089 78H-337V15Z" fill="url(#paint2_linear_4442_191)"/>
<g clip-path="url(#paint3_diamond_4442_191_clip_path)" data-figma-skip-parse="true"><g transform="matrix(0 0.015 -0.0125 0 46.5 29)"><rect x="0" y="0" width="1070.39" height="1084.47" fill="url(#paint3_diamond_4442_191)" opacity="1" shape-rendering="crispEdges"/><rect x="0" y="0" width="1070.39" height="1084.47" transform="scale(1 -1)" fill="url(#paint3_diamond_4442_191)" opacity="1" shape-rendering="crispEdges"/><rect x="0" y="0" width="1070.39" height="1084.47" transform="scale(-1 1)" fill="url(#paint3_diamond_4442_191)" opacity="1" shape-rendering="crispEdges"/><rect x="0" y="0" width="1070.39" height="1084.47" transform="scale(-1)" fill="url(#paint3_diamond_4442_191)" opacity="1" shape-rendering="crispEdges"/></g></g><ellipse cx="46.5" cy="29" rx="12.5" ry="15" data-figma-gradient-fill="{&#34;type&#34;:&#34;GRADIENT_DIAMOND&#34;,&#34;stops&#34;:[{&#34;color&#34;:{&#34;r&#34;:1.0,&#34;g&#34;:1.0,&#34;b&#34;:1.0,&#34;a&#34;:1.0},&#34;position&#34;:0.0},{&#34;color&#34;:{&#34;r&#34;:0.0,&#34;g&#34;:0.0,&#34;b&#34;:0.0,&#34;a&#34;:0.0},&#34;position&#34;:1.0}],&#34;stopsVar&#34;:[{&#34;color&#34;:{&#34;r&#34;:1.0,&#34;g&#34;:1.0,&#34;b&#34;:1.0,&#34;a&#34;:1.0},&#34;position&#34;:0.0},{&#34;color&#34;:{&#34;r&#34;:0.0,&#34;g&#34;:0.0,&#34;b&#34;:0.0,&#34;a&#34;:0.0},&#34;position&#34;:1.0}],&#34;transform&#34;:{&#34;m00&#34;:1.5308085524965700e-15,&#34;m01&#34;:-25.0,&#34;m02&#34;:59.0,&#34;m10&#34;:30.0,&#34;m11&#34;:1.8369703053475314e-15,&#34;m12&#34;:14.0},&#34;opacity&#34;:1.0,&#34;blendMode&#34;:&#34;NORMAL&#34;,&#34;visible&#34;:true}"/>
</g>
<defs>
<clipPath id="paint3_diamond_4442_191_clip_path"><ellipse cx="46.5" cy="29" rx="12.5" ry="15"/></clipPath><linearGradient id="paint0_linear_4442_191" x1="-286" y1="39" x2="84" y2="39" gradientUnits="userSpaceOnUse">
<stop stop-color="#2C61CD"/>
<stop offset="1" stop-color="#703AA9"/>
</linearGradient>
<linearGradient id="paint1_linear_4442_191" x1="79.7308" y1="3.98866" x2="-132.97" y2="169.908" gradientUnits="userSpaceOnUse">
<stop offset="0.0173136" stop-color="#7693F1"/>
<stop offset="0.0761445" stop-color="#7171EF"/>
<stop offset="0.126067" stop-color="#FCF5FF"/>
<stop offset="0.230769" stop-color="#363BB5"/>
<stop offset="0.338993" stop-color="#3D49BE"/>
<stop offset="0.470139" stop-color="#7A96D5"/>
<stop offset="0.585721" stop-color="#4A64B4"/>
<stop offset="0.735577" stop-color="#6363DA"/>
<stop offset="0.893478" stop-color="#F5EDFF"/>
<stop offset="1" stop-color="#143B97"/>
</linearGradient>
<linearGradient id="paint2_linear_4442_191" x1="-101.5" y1="0" x2="-101.5" y2="78" gradientUnits="userSpaceOnUse">
<stop stop-color="white" stop-opacity="0"/>
<stop offset="0.140461" stop-color="white" stop-opacity="0.2"/>
<stop offset="0.262128" stop-color="white" stop-opacity="0.05"/>
<stop offset="0.705008" stop-color="white" stop-opacity="0.05"/>
<stop offset="0.799555" stop-color="white" stop-opacity="0.2"/>
<stop offset="0.872435" stop-color="white" stop-opacity="0.05"/>
<stop offset="1" stop-color="white" stop-opacity="0"/>
</linearGradient>
<linearGradient id="paint3_diamond_4442_191" x1="0" y1="0" x2="500" y2="500" gradientUnits="userSpaceOnUse">
<stop stop-color="white"/>
<stop offset="1" stop-opacity="0"/>
</linearGradient>
</defs>
</svg>
