<svg width="737" height="78" viewBox="-400 0 737 78" fill="none" xmlns="http://www.w3.org/2000/svg">
<mask id="mask0_4442_192" style="mask-type:alpha" maskUnits="userSpaceOnUse" x="-400" y="0" width="737" height="78">
<rect x="-400" width="737" height="78" fill="#D9D9D9"/>
</mask>
<g mask="url(#mask0_4442_192)">
<path opacity="0.9" d="M-400 1H413.435C411.945 1.50942 410.301 2.13444 408.571 2.89746C401.814 5.87802 393.66 10.9843 388.333 19.4678C385.043 24.7076 382.591 32.3179 380.765 40.2451C376.07 60.6183 359.375 77 338.683 77H-400Z" fill="url(#paint0_linear_4442_192)" stroke="url(#paint1_linear_4442_192)" stroke-width="2"/>
<path opacity="0.7" d="M-400 0H420C420 0 398.598 3.5 388.266 20C385.078 25.0917 382.662 32.5639 380.847 40.4627C376.083 61.1856 359.06 78 337.797 78H-400Z" fill="url(#paint2_linear_4442_192)"/>
</g>
<defs>
<linearGradient id="paint0_linear_4442_192" x1="51" y1="39" x2="421" y2="39" gradientUnits="userSpaceOnUse">
<stop stop-color="#2C61CD"/>
<stop offset="1" stop-color="#703AA9"/>
</linearGradient>
<linearGradient id="paint1_linear_4442_192" x1="416.731" y1="3.98866" x2="204.03" y2="169.908" gradientUnits="userSpaceOnUse">
<stop offset="0.0173136" stop-color="#7693F1"/>
<stop offset="0.0761445" stop-color="#7171EF"/>
<stop offset="0.126067" stop-color="#FCF5FF"/>
<stop offset="0.230769" stop-color="#363BB5"/>
<stop offset="0.338993" stop-color="#3D49BE"/>
<stop offset="0.470139" stop-color="#7A96D5"/>
<stop offset="0.585721" stop-color="#4A64B4"/>
<stop offset="0.735577" stop-color="#6363DA"/>
<stop offset="0.893478" stop-color="#F5EDFF"/>
<stop offset="1" stop-color="#143B97"/>
</linearGradient>
<linearGradient id="paint2_linear_4442_192" x1="235.5" y1="0" x2="235.5" y2="78" gradientUnits="userSpaceOnUse">
<stop stop-color="white" stop-opacity="0"/>
<stop offset="0.140461" stop-color="white" stop-opacity="0.2"/>
<stop offset="0.262128" stop-color="white" stop-opacity="0.05"/>
<stop offset="0.705008" stop-color="white" stop-opacity="0.05"/>
<stop offset="0.799555" stop-color="white" stop-opacity="0.2"/>
<stop offset="0.872435" stop-color="white" stop-opacity="0.05"/>
<stop offset="1" stop-color="white" stop-opacity="0"/>
</linearGradient>
</defs>
</svg>
